<svg id="glipy_copy_4" viewBox="0 0 64 64" xmlns="http://www.w3.org/2000/svg" xmlns:xlink="http://www.w3.org/1999/xlink" data-name="glipy copy 4"><linearGradient id="linear-gradient" gradientUnits="userSpaceOnUse" x1="2" x2="62" y1="31.999" y2="31.999"><stop offset="0" stop-color="#00c0ff"/><stop offset="1" stop-color="#5558ff"/></linearGradient><path d="m32 1.99943a30 30 0 1 0 30 30 30.03661 30.03661 0 0 0 -30-30zm.46 10.01c.65-.07 5.62.5 3.96.97a11.43892 11.43892 0 0 0 -6.82 10.45c-.15 8.52 9.53 14.25 16.91 10.02v6.8h-28.11v-14.19a14.04947 14.04947 0 0 1 14.06-14.05zm-12.26 3.52a.71951.71951 0 0 1 -.53.86 2.98615 2.98615 0 0 0 -2.23 3.57.71813.71813 0 0 1 -.7.87c-1.41-.15-.72-3.11-.14-3.88.41-.86003 3.06-2.95 3.6-1.42003zm-7 5.28a7.22548 7.22548 0 0 1 5.39-8.62.7132.7132 0 0 1 .31994 1.39 5.79043 5.79043 0 0 0 -4.31994 6.91.72536.72536 0 0 1 -.7.88.71374.71374 0 0 1 -.69-.56zm19.26 31.19a5.14108 5.14108 0 0 1 -4.69-3.02h9.37a5.12672 5.12672 0 0 1 -4.68 3.02zm17.66-5.31a2.89281 2.89281 0 0 1 -2.08.86h-31.12a2.94271 2.94271 0 1 1 .21-5.88c.02.02 30.8-.02 30.79.01a2.95631 2.95631 0 0 1 2.2 5.01zm-3.61-14.91c-6.45 4.41-15.59-.51-15.48-8.35a10.03556 10.03556 0 0 1 10-10c9.94.08996 13.68 12.94 5.48 18.34997zm-4.2-2.28h-2.57a.71.71 0 0 1 0-1.42h.57v-5.53h-.57a.71.71 0 0 1 0-1.42h1.29a.70628.70628 0 0 1 .71.71v6.24h.57a.71.71 0 0 1 0 1.42zm-1.5-12.14a1.14517 1.14517 0 0 1 0 2.29 1.14517 1.14517 0 0 1 0-2.29001z" fill="url(#linear-gradient)"/></svg>